<svg xmlns="http://www.w3.org/2000/svg" width="1200" height="320" viewBox="0 0 1200 320" role="img" aria-label="tarn — the editor your agent wishes it had">
<rect x="0" y="0" width="1200" height="320" fill="#0a0f14"/>
<g stroke="#ffffff" stroke-opacity="0.04" stroke-width="1"><line x1="0" y1="0" x2="0" y2="320"/><line x1="24" y1="0" x2="24" y2="320"/><line x1="48" y1="0" x2="48" y2="320"/><line x1="72" y1="0" x2="72" y2="320"/><line x1="96" y1="0" x2="96" y2="320"/><line x1="120" y1="0" x2="120" y2="320"/><line x1="144" y1="0" x2="144" y2="320"/><line x1="168" y1="0" x2="168" y2="320"/><line x1="192" y1="0" x2="192" y2="320"/><line x1="216" y1="0" x2="216" y2="320"/><line x1="240" y1="0" x2="240" y2="320"/><line x1="264" y1="0" x2="264" y2="320"/><line x1="288" y1="0" x2="288" y2="320"/><line x1="312" y1="0" x2="312" y2="320"/><line x1="336" y1="0" x2="336" y2="320"/><line x1="360" y1="0" x2="360" y2="320"/><line x1="384" y1="0" x2="384" y2="320"/><line x1="408" y1="0" x2="408" y2="320"/><line x1="432" y1="0" x2="432" y2="320"/><line x1="456" y1="0" x2="456" y2="320"/><line x1="480" y1="0" x2="480" y2="320"/><line x1="504" y1="0" x2="504" y2="320"/><line x1="528" y1="0" x2="528" y2="320"/><line x1="552" y1="0" x2="552" y2="320"/><line x1="576" y1="0" x2="576" y2="320"/><line x1="600" y1="0" x2="600" y2="320"/><line x1="624" y1="0" x2="624" y2="320"/><line x1="648" y1="0" x2="648" y2="320"/><line x1="672" y1="0" x2="672" y2="320"/><line x1="696" y1="0" x2="696" y2="320"/><line x1="720" y1="0" x2="720" y2="320"/><line x1="744" y1="0" x2="744" y2="320"/><line x1="768" y1="0" x2="768" y2="320"/><line x1="792" y1="0" x2="792" y2="320"/><line x1="816" y1="0" x2="816" y2="320"/><line x1="840" y1="0" x2="840" y2="320"/><line x1="864" y1="0" x2="864" y2="320"/><line x1="888" y1="0" x2="888" y2="320"/><line x1="912" y1="0" x2="912" y2="320"/><line x1="936" y1="0" x2="936" y2="320"/><line x1="960" y1="0" x2="960" y2="320"/><line x1="984" y1="0" x2="984" y2="320"/><line x1="1008" y1="0" x2="1008" y2="320"/><line x1="1032" y1="0" x2="1032" y2="320"/><line x1="1056" y1="0" x2="1056" y2="320"/><line x1="1080" y1="0" x2="1080" y2="320"/><line x1="1104" y1="0" x2="1104" y2="320"/><line x1="1128" y1="0" x2="1128" y2="320"/><line x1="1152" y1="0" x2="1152" y2="320"/><line x1="1176" y1="0" x2="1176" y2="320"/><line x1="0" y1="0" x2="1200" y2="0"/><line x1="0" y1="24" x2="1200" y2="24"/><line x1="0" y1="48" x2="1200" y2="48"/><line x1="0" y1="72" x2="1200" y2="72"/><line x1="0" y1="96" x2="1200" y2="96"/><line x1="0" y1="120" x2="1200" y2="120"/><line x1="0" y1="144" x2="1200" y2="144"/><line x1="0" y1="168" x2="1200" y2="168"/><line x1="0" y1="192" x2="1200" y2="192"/><line x1="0" y1="216" x2="1200" y2="216"/><line x1="0" y1="240" x2="1200" y2="240"/><line x1="0" y1="264" x2="1200" y2="264"/><line x1="0" y1="288" x2="1200" y2="288"/><line x1="0" y1="312" x2="1200" y2="312"/></g>
<rect x="12" y="12" width="1176" height="296" fill="none" stroke="#7a4a22" stroke-width="2"/>
<rect x="150" y="4" width="360" height="18" fill="#0a0f14"/>
<text x="172" y="19" font-family="'SF Mono','JetBrains Mono',Menlo,Consolas,monospace" font-size="15" letter-spacing="2" fill="#7a4a22">tarn — by an agent, for agents</text>
<rect x="96" y="72" width="24" height="24" fill="#f2c089" stroke="#0a0f14" stroke-width="1"/><rect x="96" y="96" width="24" height="24" fill="#f2c089" stroke="#0a0f14" stroke-width="1"/><rect x="72" y="120" width="24" height="24" fill="#f2c089" stroke="#0a0f14" stroke-width="1"/><rect x="96" y="120" width="24" height="24" fill="#f2c089" stroke="#0a0f14" stroke-width="1"/><rect x="120" y="120" width="24" height="24" fill="#f2c089" stroke="#0a0f14" stroke-width="1"/><rect x="96" y="144" width="24" height="24" fill="#f2c089" stroke="#0a0f14" stroke-width="1"/><rect x="96" y="168" width="24" height="24" fill="#f2c089" stroke="#0a0f14" stroke-width="1"/><rect x="96" y="192" width="24" height="24" fill="#f2c089" stroke="#0a0f14" stroke-width="1"/><rect x="96" y="216" width="24" height="24" fill="#f2c089" stroke="#0a0f14" stroke-width="1"/><rect x="120" y="216" width="24" height="24" fill="#f2c089" stroke="#0a0f14" stroke-width="1"/><rect x="192" y="120" width="24" height="24" fill="#dd9648" stroke="#0a0f14" stroke-width="1"/><rect x="216" y="120" width="24" height="24" fill="#c7752e" stroke="#0a0f14" stroke-width="1"/><rect x="240" y="120" width="24" height="24" fill="#c7752e" stroke="#0a0f14" stroke-width="1"/><rect x="168" y="144" width="24" height="24" fill="#dd9648" stroke="#0a0f14" stroke-width="1"/><rect x="264" y="144" width="24" height="24" fill="#a05a1f" stroke="#0a0f14" stroke-width="1"/><rect x="192" y="168" width="24" height="24" fill="#dd9648" stroke="#0a0f14" stroke-width="1"/><rect x="216" y="168" width="24" height="24" fill="#c7752e" stroke="#0a0f14" stroke-width="1"/><rect x="240" y="168" width="24" height="24" fill="#c7752e" stroke="#0a0f14" stroke-width="1"/><rect x="264" y="168" width="24" height="24" fill="#a05a1f" stroke="#0a0f14" stroke-width="1"/><rect x="168" y="192" width="24" height="24" fill="#dd9648" stroke="#0a0f14" stroke-width="1"/><rect x="264" y="192" width="24" height="24" fill="#a05a1f" stroke="#0a0f14" stroke-width="1"/><rect x="192" y="216" width="24" height="24" fill="#dd9648" stroke="#0a0f14" stroke-width="1"/><rect x="216" y="216" width="24" height="24" fill="#c7752e" stroke="#0a0f14" stroke-width="1"/><rect x="240" y="216" width="24" height="24" fill="#c7752e" stroke="#0a0f14" stroke-width="1"/><rect x="264" y="216" width="24" height="24" fill="#a05a1f" stroke="#0a0f14" stroke-width="1"/><rect x="312" y="120" width="24" height="24" fill="#a05a1f" stroke="#0a0f14" stroke-width="1"/><rect x="360" y="120" width="24" height="24" fill="#6f4524" stroke="#0a0f14" stroke-width="1"/><rect x="384" y="120" width="24" height="24" fill="#46594a" stroke="#0a0f14" stroke-width="1"/><rect x="312" y="144" width="24" height="24" fill="#a05a1f" stroke="#0a0f14" stroke-width="1"/><rect x="336" y="144" width="24" height="24" fill="#6f4524" stroke="#0a0f14" stroke-width="1"/><rect x="312" y="168" width="24" height="24" fill="#a05a1f" stroke="#0a0f14" stroke-width="1"/><rect x="312" y="192" width="24" height="24" fill="#a05a1f" stroke="#0a0f14" stroke-width="1"/><rect x="312" y="216" width="24" height="24" fill="#a05a1f" stroke="#0a0f14" stroke-width="1"/><rect x="432" y="120" width="24" height="24" fill="#46594a" stroke="#0a0f14" stroke-width="1"/><rect x="456" y="120" width="24" height="24" fill="#2f5d4f" stroke="#0a0f14" stroke-width="1"/><rect x="480" y="120" width="24" height="24" fill="#2f5d4f" stroke="#0a0f14" stroke-width="1"/><rect x="504" y="120" width="24" height="24" fill="#2f5d4f" stroke="#0a0f14" stroke-width="1"/><rect x="432" y="144" width="24" height="24" fill="#46594a" stroke="#0a0f14" stroke-width="1"/><rect x="504" y="144" width="24" height="24" fill="#2f5d4f" stroke="#0a0f14" stroke-width="1"/><rect x="432" y="168" width="24" height="24" fill="#46594a" stroke="#0a0f14" stroke-width="1"/><rect x="504" y="168" width="24" height="24" fill="#2f5d4f" stroke="#0a0f14" stroke-width="1"/><rect x="432" y="192" width="24" height="24" fill="#46594a" stroke="#0a0f14" stroke-width="1"/><rect x="504" y="192" width="24" height="24" fill="#2f5d4f" stroke="#0a0f14" stroke-width="1"/><rect x="432" y="216" width="24" height="24" fill="#46594a" stroke="#0a0f14" stroke-width="1"/><rect x="504" y="216" width="24" height="24" fill="#2f5d4f" stroke="#0a0f14" stroke-width="1"/>
<rect x="14" y="270" width="1172" height="26" fill="#c7752e"/>
<text x="28" y="288" font-family="'SF Mono','JetBrains Mono',Menlo,Consolas,monospace" font-size="15" letter-spacing="1" font-weight="700" fill="#0a0f14">tarn*  $ the editor your agent wishes it had</text>
<text x="1172" y="288" text-anchor="end" font-family="'SF Mono','JetBrains Mono',Menlo,Consolas,monospace" font-size="15" letter-spacing="1" font-weight="700" fill="#0a0f14">^S save   ^Q quit   Ln 1, Col 1</text>
<g><rect x="1071" y="70" width="11" height="11" fill="#7fd1b0"/><rect x="1071" y="83" width="11" height="11" fill="#c7752e"/><rect x="1032" y="96" width="11" height="11" fill="#e0a35a"/><rect x="1045" y="96" width="11" height="11" fill="#c7752e"/><rect x="1058" y="96" width="11" height="11" fill="#c7752e"/><rect x="1071" y="96" width="11" height="11" fill="#c7752e"/><rect x="1084" y="96" width="11" height="11" fill="#c7752e"/><rect x="1097" y="96" width="11" height="11" fill="#a05a1f"/><rect x="1110" y="96" width="11" height="11" fill="#a05a1f"/><rect x="1019" y="109" width="11" height="11" fill="#e0a35a"/><rect x="1032" y="109" width="11" height="11" fill="#c7752e"/><rect x="1045" y="109" width="11" height="11" fill="#c7752e"/><rect x="1058" y="109" width="11" height="11" fill="#c7752e"/><rect x="1071" y="109" width="11" height="11" fill="#c7752e"/><rect x="1084" y="109" width="11" height="11" fill="#a05a1f"/><rect x="1097" y="109" width="11" height="11" fill="#a05a1f"/><rect x="1110" y="109" width="11" height="11" fill="#a05a1f"/><rect x="1123" y="109" width="11" height="11" fill="#a05a1f"/><rect x="1006" y="122" width="11" height="11" fill="#c7752e"/><rect x="1019" y="122" width="11" height="11" fill="#c7752e"/><rect x="1032" y="122" width="11" height="11" fill="#c7752e"/><rect x="1045" y="122" width="11" height="11" fill="#7fd1b0"/><rect x="1058" y="122" width="11" height="11" fill="#7fd1b0"/><rect x="1071" y="122" width="11" height="11" fill="#a05a1f"/><rect x="1084" y="122" width="11" height="11" fill="#7fd1b0"/><rect x="1097" y="122" width="11" height="11" fill="#7fd1b0"/><rect x="1110" y="122" width="11" height="11" fill="#a05a1f"/><rect x="1123" y="122" width="11" height="11" fill="#6f4524"/><rect x="1136" y="122" width="11" height="11" fill="#c7752e"/><rect x="1006" y="135" width="11" height="11" fill="#c7752e"/><rect x="1019" y="135" width="11" height="11" fill="#c7752e"/><rect x="1032" y="135" width="11" height="11" fill="#c7752e"/><rect x="1045" y="135" width="11" height="11" fill="#7fd1b0"/><rect x="1058" y="135" width="11" height="11" fill="#0a0f14"/><rect x="1071" y="135" width="11" height="11" fill="#a05a1f"/><rect x="1084" y="135" width="11" height="11" fill="#7fd1b0"/><rect x="1097" y="135" width="11" height="11" fill="#0a0f14"/><rect x="1110" y="135" width="11" height="11" fill="#6f4524"/><rect x="1123" y="135" width="11" height="11" fill="#6f4524"/><rect x="1136" y="135" width="11" height="11" fill="#c7752e"/><rect x="1019" y="148" width="11" height="11" fill="#c7752e"/><rect x="1032" y="148" width="11" height="11" fill="#c7752e"/><rect x="1045" y="148" width="11" height="11" fill="#a05a1f"/><rect x="1058" y="148" width="11" height="11" fill="#a05a1f"/><rect x="1071" y="148" width="11" height="11" fill="#a05a1f"/><rect x="1084" y="148" width="11" height="11" fill="#a05a1f"/><rect x="1097" y="148" width="11" height="11" fill="#6f4524"/><rect x="1110" y="148" width="11" height="11" fill="#6f4524"/><rect x="1123" y="148" width="11" height="11" fill="#6f4524"/><rect x="1019" y="161" width="11" height="11" fill="#c7752e"/><rect x="1032" y="161" width="11" height="11" fill="#a05a1f"/><rect x="1045" y="161" width="11" height="11" fill="#a05a1f"/><rect x="1058" y="161" width="11" height="11" fill="#3a2a1c"/><rect x="1071" y="161" width="11" height="11" fill="#3a2a1c"/><rect x="1084" y="161" width="11" height="11" fill="#3a2a1c"/><rect x="1097" y="161" width="11" height="11" fill="#6f4524"/><rect x="1110" y="161" width="11" height="11" fill="#6f4524"/><rect x="1123" y="161" width="11" height="11" fill="#6f4524"/><rect x="1019" y="174" width="11" height="11" fill="#a05a1f"/><rect x="1032" y="174" width="11" height="11" fill="#a05a1f"/><rect x="1045" y="174" width="11" height="11" fill="#a05a1f"/><rect x="1058" y="174" width="11" height="11" fill="#a05a1f"/><rect x="1071" y="174" width="11" height="11" fill="#6f4524"/><rect x="1084" y="174" width="11" height="11" fill="#6f4524"/><rect x="1097" y="174" width="11" height="11" fill="#6f4524"/><rect x="1110" y="174" width="11" height="11" fill="#6f4524"/><rect x="1123" y="174" width="11" height="11" fill="#2f5d4f"/><rect x="1032" y="187" width="11" height="11" fill="#a05a1f"/><rect x="1045" y="187" width="11" height="11" fill="#a05a1f"/><rect x="1058" y="187" width="11" height="11" fill="#6f4524"/><rect x="1071" y="187" width="11" height="11" fill="#6f4524"/><rect x="1084" y="187" width="11" height="11" fill="#6f4524"/><rect x="1097" y="187" width="11" height="11" fill="#6f4524"/><rect x="1110" y="187" width="11" height="11" fill="#2f5d4f"/><rect x="1032" y="200" width="11" height="11" fill="#c7752e"/><rect x="1045" y="200" width="11" height="11" fill="#c7752e"/><rect x="1097" y="200" width="11" height="11" fill="#c7752e"/><rect x="1110" y="200" width="11" height="11" fill="#c7752e"/></g>
</svg>
