<svg xmlns="http://www.w3.org/2000/svg" width="234" height="252" viewBox="0 0 234 252" role="img" aria-label="Cu, the tarn mascot — a terminal-cursor critter">
<rect x="0" y="0" width="234" height="252" fill="#0a0f14"/>
<g><rect x="108" y="18" width="16" height="16" fill="#7fd1b0"/><rect x="108" y="36" width="16" height="16" fill="#c7752e"/><rect x="54" y="54" width="16" height="16" fill="#e0a35a"/><rect x="72" y="54" width="16" height="16" fill="#c7752e"/><rect x="90" y="54" width="16" height="16" fill="#c7752e"/><rect x="108" y="54" width="16" height="16" fill="#c7752e"/><rect x="126" y="54" width="16" height="16" fill="#c7752e"/><rect x="144" y="54" width="16" height="16" fill="#a05a1f"/><rect x="162" y="54" width="16" height="16" fill="#a05a1f"/><rect x="36" y="72" width="16" height="16" fill="#e0a35a"/><rect x="54" y="72" width="16" height="16" fill="#c7752e"/><rect x="72" y="72" width="16" height="16" fill="#c7752e"/><rect x="90" y="72" width="16" height="16" fill="#c7752e"/><rect x="108" y="72" width="16" height="16" fill="#c7752e"/><rect x="126" y="72" width="16" height="16" fill="#a05a1f"/><rect x="144" y="72" width="16" height="16" fill="#a05a1f"/><rect x="162" y="72" width="16" height="16" fill="#a05a1f"/><rect x="180" y="72" width="16" height="16" fill="#a05a1f"/><rect x="18" y="90" width="16" height="16" fill="#c7752e"/><rect x="36" y="90" width="16" height="16" fill="#c7752e"/><rect x="54" y="90" width="16" height="16" fill="#c7752e"/><rect x="72" y="90" width="16" height="16" fill="#7fd1b0"/><rect x="90" y="90" width="16" height="16" fill="#7fd1b0"/><rect x="108" y="90" width="16" height="16" fill="#a05a1f"/><rect x="126" y="90" width="16" height="16" fill="#7fd1b0"/><rect x="144" y="90" width="16" height="16" fill="#7fd1b0"/><rect x="162" y="90" width="16" height="16" fill="#a05a1f"/><rect x="180" y="90" width="16" height="16" fill="#6f4524"/><rect x="198" y="90" width="16" height="16" fill="#c7752e"/><rect x="18" y="108" width="16" height="16" fill="#c7752e"/><rect x="36" y="108" width="16" height="16" fill="#c7752e"/><rect x="54" y="108" width="16" height="16" fill="#c7752e"/><rect x="72" y="108" width="16" height="16" fill="#7fd1b0"/><rect x="90" y="108" width="16" height="16" fill="#0a0f14"/><rect x="108" y="108" width="16" height="16" fill="#a05a1f"/><rect x="126" y="108" width="16" height="16" fill="#7fd1b0"/><rect x="144" y="108" width="16" height="16" fill="#0a0f14"/><rect x="162" y="108" width="16" height="16" fill="#6f4524"/><rect x="180" y="108" width="16" height="16" fill="#6f4524"/><rect x="198" y="108" width="16" height="16" fill="#c7752e"/><rect x="36" y="126" width="16" height="16" fill="#c7752e"/><rect x="54" y="126" width="16" height="16" fill="#c7752e"/><rect x="72" y="126" width="16" height="16" fill="#a05a1f"/><rect x="90" y="126" width="16" height="16" fill="#a05a1f"/><rect x="108" y="126" width="16" height="16" fill="#a05a1f"/><rect x="126" y="126" width="16" height="16" fill="#a05a1f"/><rect x="144" y="126" width="16" height="16" fill="#6f4524"/><rect x="162" y="126" width="16" height="16" fill="#6f4524"/><rect x="180" y="126" width="16" height="16" fill="#6f4524"/><rect x="36" y="144" width="16" height="16" fill="#c7752e"/><rect x="54" y="144" width="16" height="16" fill="#a05a1f"/><rect x="72" y="144" width="16" height="16" fill="#a05a1f"/><rect x="90" y="144" width="16" height="16" fill="#3a2a1c"/><rect x="108" y="144" width="16" height="16" fill="#3a2a1c"/><rect x="126" y="144" width="16" height="16" fill="#3a2a1c"/><rect x="144" y="144" width="16" height="16" fill="#6f4524"/><rect x="162" y="144" width="16" height="16" fill="#6f4524"/><rect x="180" y="144" width="16" height="16" fill="#6f4524"/><rect x="36" y="162" width="16" height="16" fill="#a05a1f"/><rect x="54" y="162" width="16" height="16" fill="#a05a1f"/><rect x="72" y="162" width="16" height="16" fill="#a05a1f"/><rect x="90" y="162" width="16" height="16" fill="#a05a1f"/><rect x="108" y="162" width="16" height="16" fill="#6f4524"/><rect x="126" y="162" width="16" height="16" fill="#6f4524"/><rect x="144" y="162" width="16" height="16" fill="#6f4524"/><rect x="162" y="162" width="16" height="16" fill="#6f4524"/><rect x="180" y="162" width="16" height="16" fill="#2f5d4f"/><rect x="54" y="180" width="16" height="16" fill="#a05a1f"/><rect x="72" y="180" width="16" height="16" fill="#a05a1f"/><rect x="90" y="180" width="16" height="16" fill="#6f4524"/><rect x="108" y="180" width="16" height="16" fill="#6f4524"/><rect x="126" y="180" width="16" height="16" fill="#6f4524"/><rect x="144" y="180" width="16" height="16" fill="#6f4524"/><rect x="162" y="180" width="16" height="16" fill="#2f5d4f"/><rect x="54" y="198" width="16" height="16" fill="#c7752e"/><rect x="72" y="198" width="16" height="16" fill="#c7752e"/><rect x="144" y="198" width="16" height="16" fill="#c7752e"/><rect x="162" y="198" width="16" height="16" fill="#c7752e"/></g>
</svg>
